HIERARCHY
ROOT Hips
{
	OFFSET 0.00000 0.00000 0.00000
	CHANNELS 6 Xposition Yposition Zposition Zrotation Yrotation Xrotation 
	JOINT LHipJoint
	{
		OFFSET 0 0 0
		CHANNELS 3 Zrotation Yrotation Xrotation
		JOINT LeftHip
		{
			OFFSET 3.13874 -1.57224 1.49786
			CHANNELS 3 Zrotation Yrotation Xrotation
			JOINT LeftKnee
			{
				OFFSET 2.10955 -5.79594 0.00000
				CHANNELS 3 Zrotation Yrotation Xrotation
				JOINT LeftAnkle
				{
					OFFSET 2.41843 -6.64458 0.00000
					CHANNELS 3 Zrotation Yrotation Xrotation
					JOINT LeftToe
					{
						OFFSET 0.04713 -0.12948 1.66229
						CHANNELS 3 Zrotation Yrotation Xrotation
						End Site
						{
							OFFSET 0.00000 -0.00000 0.85167
						}
					}
				}
			}
		}
	}
	JOINT RHipJoint
	{
		OFFSET 0 0 0
		CHANNELS 3 Zrotation Yrotation Xrotation
		JOINT RightHip
		{
			OFFSET -3.13988 -1.57224 1.49786
			CHANNELS 3 Zrotation Yrotation Xrotation
			JOINT RightKnee
			{
				OFFSET -2.15006 -5.90725 0.00000
				CHANNELS 3 Zrotation Yrotation Xrotation
				JOINT RightAnkle
				{
					OFFSET -2.34496 -6.44273 0.00000
					CHANNELS 3 Zrotation Yrotation Xrotation
					JOINT RightToe
					{
						OFFSET -0.08699 -0.23900 1.55223
						CHANNELS 3 Zrotation Yrotation Xrotation
						End Site
						{
							OFFSET -0.00000 -0.00000 0.80281
						}
					}
				}
			}
		}
	}
	JOINT lowerback
	{
		OFFSET 0 0 0
		CHANNELS 3 Zrotation Yrotation Xrotation
		JOINT Chest
		{
			OFFSET 0.01292 1.96517 -0.16495
			CHANNELS 3 Zrotation Yrotation Xrotation
			JOINT Chest2
			{
				OFFSET 0.02122 1.88666 0.19706
				CHANNELS 3 Zrotation Yrotation Xrotation
				JOINT lowerneck
				{
					OFFSET 0 0 0
					CHANNELS 3 Zrotation Yrotation Xrotation
					JOINT Neck
					{
						OFFSET -0.01683 1.81591 0.07903
						CHANNELS 3 Zrotation Yrotation Xrotation
						JOINT Head
						{
							OFFSET 0.00815 1.74013 -0.47700
							CHANNELS 3 Zrotation Yrotation Xrotation
							End Site
							{
								OFFSET -0.00204 1.83225 -0.16933
							}
						}
					}
				}
				JOINT LeftCollar
				{
					OFFSET 0 0 0
					CHANNELS 3 Zrotation Yrotation Xrotation
					JOINT LeftShoulder
					{
						OFFSET 3.38482 1.41533 0.19802
CHANNELS 3 Zrotation Xrotation Yrotation
						JOINT LeftElbow
						{
OFFSET 0 -4.327120 0.000000
CHANNELS 3 Zrotation Xrotation Yrotation
							JOINT LeftWrist
							{
OFFSET 0 -3.285870 -0.000000
CHANNELS 3 Zrotation Xrotation Yrotation
								JOINT lhand
								{
									OFFSET 0 0 0
CHANNELS 3 Zrotation Xrotation Yrotation
									JOINT LFingers
									{
OFFSET 0 -0.433160 -0.000000
CHANNELS 3 Zrotation Xrotation Yrotation
										End Site
										{
OFFSET 0 -0.349220 -0.000000
										}
									}
								}
								JOINT LThumb
								{
OFFSET 0 0.000000 0.000000
CHANNELS 3 Zrotation Xrotation Yrotation
									End Site
									{
OFFSET 0 -0.354560 0.354560
									}
								}
							}
						}
					}
				}
				JOINT RightCollar
				{
					OFFSET 0 0 0
					CHANNELS 3 Zrotation Yrotation Xrotation
					JOINT RightShoulder
					{
						OFFSET -3.09725 1.62858 -0.14144
CHANNELS 3 Zrotation Xrotation Yrotation
						JOINT RightElbow
						{
OFFSET 0 -4.291040 0.000000
CHANNELS 3 Zrotation Xrotation Yrotation
							JOINT RightWrist
							{
OFFSET 0 -3.227200 -0.000000
CHANNELS 3 Zrotation Xrotation Yrotation
								JOINT rhand
								{
									OFFSET 0 0 0
CHANNELS 3 Zrotation Xrotation Yrotation
									JOINT RFingers
									{
OFFSET 0 -0.543620 -0.000000
CHANNELS 3 Zrotation Xrotation Yrotation
										End Site
										{
OFFSET 0 -0.438280 -0.000000
										}
									}
								}
								JOINT RThumb
								{
OFFSET 0 0.000000 0.000000
CHANNELS 3 Zrotation Xrotation Yrotation
									End Site
									{
OFFSET 0 -0.444970 0.444970
									}
								}
							}
						}
					}
				}
			}
		}
	}
}
MOTION
Frames: 4
Frame Time: 0.008333333333333333
26.578019 15.394379 13.498098 -179.452629 8.186099 -167.986257 0.000000 0.000000 0.000000 -20.322759 -29.243054 -31.232165 1.168749 6.855889 19.291779 0.089463 12.788660 -19.301159 8.555236 -16.512735 -54.538654 0.000000 0.000000 0.000000 34.922800 5.801079 16.875642 -0.153607 -2.480549 6.838019 -1.225783 -6.772920 -24.330632 -0.285067 3.421959 -9.456956 -4.298439 0.916825 12.804782 4.449811 2.714782 -13.571556 6.626205 3.122578 -23.827808 6.028281 1.941559 -9.941488 -10.676543 13.529374 40.278095 -2.794445 7.647178 17.904818 0.000000 0.000000 0.000000 2.778886 32.548193 -10.984255 16.550561 -26.261053 3.886585 32.428430 19.571812 -24.421083 0.000000 0.000000 0.000000 -7.125000 0.000000 0.000000 3.452855 58.224608 -1.117944 0.000000 0.000000 0.000000 -24.347858 28.324067 52.818456 -17.020981 -26.885496 -4.096860 -26.395271 -4.196023 18.248930 0.000000 0.000000 0.000000 7.125000 0.000000 0.000000 1.697355 50.180987 -0.217059
26.572271 15.454764 12.931225 -179.670374 7.788914 -168.912000 0.000000 0.000000 0.000000 -23.031109 -26.896725 -29.485437 1.493087 7.718964 21.863774 0.380985 8.746816 -17.986820 8.147937 -16.224589 -53.089893 0.000000 0.000000 0.000000 31.823338 1.311924 13.747091 -0.534413 -4.637272 12.885322 -0.324240 -8.050205 -16.331385 -0.764743 5.557513 -15.512710 -3.799893 0.811864 13.103739 4.489093 2.691762 -13.550816 6.382680 3.031672 -23.980965 6.039522 1.737255 -9.432937 -10.979058 13.698267 40.541909 -2.904134 7.803506 17.999853 0.000000 0.000000 0.000000 2.683604 32.846240 -11.953824 17.003500 -26.862442 4.088939 32.876712 19.774608 -24.316740 0.000000 0.000000 0.000000 -7.125000 0.000000 0.000000 3.999162 58.217135 -1.294438 0.000000 0.000000 0.000000 -24.497336 28.929438 51.382242 -16.888439 -26.710387 -4.037100 -26.148201 -4.249175 18.180525 0.000000 0.000000 0.000000 7.125000 0.000000 0.000000 1.928927 50.064872 -0.241082
26.559725 15.528514 12.377931 -180.360070 7.483840 -170.159608 0.000000 0.000000 0.000000 -26.294283 -25.584077 -24.660761 1.351492 7.358224 20.781658 0.688967 5.580560 -18.707049 7.051210 -15.370259 -49.059660 0.000000 0.000000 0.000000 28.006668 -2.803738 9.518716 -1.436932 -7.527744 21.313514 0.364710 -11.295543 -7.906144 -0.354763 3.668931 -10.163734 -3.800477 0.740621 13.705506 4.435720 2.515075 -13.448781 6.378587 2.932690 -24.230141 6.253027 1.484036 -8.946320 -11.451166 13.845301 40.858768 -3.135510 7.971793 18.173699 0.000000 0.000000 0.000000 3.073297 32.693147 -13.412528 16.977318 -26.827884 4.077092 32.511893 18.573040 -23.626792 0.000000 0.000000 0.000000 -7.125000 0.000000 0.000000 3.716908 57.358913 -1.126250 0.000000 0.000000 0.000000 -24.448130 29.105875 48.924274 -16.599672 -26.326965 -3.908146 -26.268160 -4.587956 17.307471 0.000000 0.000000 0.000000 7.125000 0.000000 0.000000 1.639876 49.134605 -0.167773
26.552287 15.605115 11.859301 -181.144968 7.322839 -171.314843 0.000000 0.000000 0.000000 -29.213792 -23.890220 -20.020318 1.158721 6.832102 19.219581 0.890628 2.947517 -19.127881 6.542538 -14.934268 -47.122044 0.000000 0.000000 0.000000 24.807366 -5.104862 4.460208 -3.018271 -10.692291 31.283012 0.785251 -16.277512 -0.930293 -0.108050 2.098827 -5.779719 -4.099797 0.727754 14.250825 4.395383 2.304620 -13.217501 6.582354 2.849673 -24.262647 6.112166 1.378083 -8.658901 -11.402285 13.739883 40.909125 -3.115370 7.945785 18.090736 0.000000 0.000000 0.000000 3.607021 32.042697 -14.919610 17.004440 -26.863610 4.089364 32.057156 17.874916 -23.449058 0.000000 0.000000 0.000000 -7.125000 0.000000 0.000000 3.233697 57.053972 -0.956477 0.000000 0.000000 0.000000 -24.425384 28.853348 46.854117 -16.579405 -26.300019 -3.899160 -26.911652 -4.683391 17.180229 0.000000 0.000000 0.000000 7.125000 0.000000 0.000000 0.983789 49.100124 -0.098289
